# xmcd
#
# Track frame offsets:
#	150
#	13082
#	29132
#	44822
#	59770
#	84332
#	103357
#	121385
#	134712
#
# Disc length: 1897 seconds
#
# Revision: 2
# Processed by: cddbd v1.5.2PL0 Copyright (c) Steve Scherf et al.
# Submitted via: audiograbber 1.83.01
#
DISCID=8e076709
DTITLE=John Berry - Things Are Not The Same
DYEAR=1994
DGENRE=Country
TTITLE0=Things That Just Don't Matter Anymore
TTITLE1=Two Steps In Front Of A Broken Heart
TTITLE2=I Know That You Know
TTITLE3=(You Were A) Friend Of Mine
TTITLE4=Things Are Not The Same
TTITLE5=Longing For Home
TTITLE6=So Much Like Heaven
TTITLE7=If I Ever Do Get Famous
TTITLE8=Things Are Not The Same (Reprise)
EXTD=
EXTT0=
EXTT1=
EXTT2=
EXTT3=
EXTT4=
EXTT5=
EXTT6=
EXTT7=
EXTT8=
PLAYORDER=
